<svg id="Layer" enable-background="new 0 0 64 64" height="512" viewBox="0 0 64 64" width="512" xmlns="http://www.w3.org/2000/svg"><path d="m54 38v4c0 2.21-1.79 4-4 4h-14-8-14c-2.21 0-4-1.79-4-4v-4z" fill="#ff7043"/><path d="m28.93 26-1.51-7.05c-.25-1.14-1.25-1.95-2.42-1.95s-2.17.81-2.42 1.95l-1.51 7.05zm16.07-2h-3.5c-1.93 0-3.5 1.57-3.5 3.5 0 .96.39 1.84 1.03 2.47.63.64 1.51 1.03 2.47 1.03h3.5zm9-10v24h-44v-24c0-2.21 1.79-4 4-4h36c2.21 0 4 1.79 4 4z" fill="#e0f7fa"/><path d="m45 24v7h-3.5c-.96 0-1.84-.39-2.47-1.03-.64-.63-1.03-1.51-1.03-2.47 0-1.93 1.57-3.5 3.5-3.5z" fill="#e0f7fa"/><path d="m28 46h8v8h-8z" fill="#4dd0e1"/><path d="m27.42 18.95 1.51 7.05h-7.86l1.51-7.05c.25-1.14 1.25-1.95 2.42-1.95s2.17.81 2.42 1.95z" fill="#e0f7fa"/><g fill="#012e52"><path d="m50 8h-36c-3.309 0-6 2.691-6 6v28c0 3.309 2.691 6 6 6h12v4h-4c-1.104 0-2 .896-2 2s.896 2 2 2h20c1.104 0 2-.896 2-2s-.896-2-2-2h-4v-4h12c3.309 0 6-2.691 6-6v-28c0-3.309-2.691-6-6-6zm-36 4h36c1.103 0 2 .897 2 2v22h-40v-22c0-1.103.897-2 2-2zm20 40h-4v-4h4zm16-8h-36c-1.103 0-2-.897-2-2v-2h40v2c0 1.103-.897 2-2 2z"/><path d="m18 28h.597l-.553 2.582c-.231 1.08.457 2.143 1.537 2.374 1.082.233 2.143-.457 2.374-1.537l.733-3.419h4.625l.732 3.418c.2.939 1.03 1.582 1.953 1.582.139 0 .279-.015.42-.045 1.08-.231 1.769-1.294 1.537-2.374l-.552-2.581h.597c1.104 0 2-.896 2-2s-.896-2-2-2h-1.454l-1.173-5.478c-.454-2.074-2.252-3.522-4.373-3.522s-3.919 1.448-4.375 3.531l-1.171 5.469h-1.454c-1.104 0-2 .896-2 2s.896 2 2 2zm6.534-8.622c.1-.452.835-.443.931-.009l.991 4.631h-2.912z"/><path d="m41.5 33h3.5c1.104 0 2-.896 2-2v-7-7c0-1.104-.896-2-2-2s-2 .896-2 2v5h-1.5c-3.033 0-5.5 2.467-5.5 5.5 0 1.478.578 2.861 1.605 3.874 1.034 1.048 2.417 1.626 3.895 1.626zm0-7h1.5v3h-1.5c-.399 0-.77-.154-1.066-.454-.28-.276-.434-.647-.434-1.046 0-.827.673-1.5 1.5-1.5z"/></g></svg>